<?xml version="1.0" standalone="no"?>
<!DOCTYPE svg PUBLIC "-//W3C//DTD SVG 20010904//EN"
 "http://www.w3.org/TR/2001/REC-SVG-20010904/DTD/svg10.dtd">
<svg version="1.0" xmlns="http://www.w3.org/2000/svg"
 width="260.000000pt" height="260.000000pt" viewBox="0 0 260.000000 260.000000"
 preserveAspectRatio="xMidYMid meet">
<metadata>
Created by potrace 1.11, written by Peter Selinger 2001-2013
</metadata>
<g transform="translate(0.000000,260.000000) scale(0.100000,-0.100000)"
fill="#000000" stroke="none">
<path d="M1270 2458 c-63 -33 -143 -74 -176 -91 -46 -24 -60 -36 -55 -48 5
-14 34 -3 179 67 136 65 172 79 172 66 1 -9 1 -280 1 -600 l1 -584 21 5 c12 3
39 9 60 12 l37 7 0 117 0 117 145 72 145 72 0 302 0 303 -204 123 c-112 67
-206 122 -208 121 -1 0 -55 -28 -118 -61z"/>
<path d="M1258 2357 c-24 -9 -28 -16 -28 -53 l0 -42 35 11 c33 10 35 13 35 54
0 46 -1 47 -42 30z"/>
<path d="M1168 2318 c-23 -8 -28 -16 -28 -44 0 -37 3 -39 47 -24 25 9 30 17
31 45 1 37 -4 40 -50 23z"/>
<path d="M1093 2288 c-16 -8 -23 -20 -23 -40 0 -49 56 -28 58 22 1 33 -2 34
-35 18z"/>
<path d="M1253 2250 c-19 -8 -23 -17 -23 -49 0 -39 0 -39 29 -31 16 4 32 6 35
2 3 -3 6 16 6 41 0 49 -6 54 -47 37z"/>
<path d="M1173 2227 c-29 -9 -33 -14 -33 -45 0 -34 1 -34 32 -28 18 3 35 11
39 18 6 9 3 60 -4 64 -1 0 -17 -4 -34 -9z"/>
<path d="M1234 2141 c-10 -11 -3 -81 9 -81 43 1 57 13 57 51 0 36 -1 38 -31
36 -17 -1 -32 -4 -35 -6z"/>
<path d="M1163 2132 c-20 -3 -23 -10 -23 -44 0 -37 2 -40 23 -34 12 3 29 6 37
6 14 0 18 30 11 71 -1 6 -14 7 -48 1z"/>
<path d="M825 2021 c-38 -15 -109 -42 -157 -61 -67 -25 -88 -37 -88 -51 0 -11
2 -19 3 -19 2 0 75 25 162 55 88 30 162 55 167 55 4 0 9 -147 10 -327 l3 -328
45 -15 c63 -21 67 -24 68 -66 2 -44 2 -45 38 -46 59 -1 70 3 88 32 17 30 19
31 77 25 l59 -5 -2 317 -3 317 -179 73 c-99 40 -189 73 -200 72 -12 0 -52 -13
-91 -28z"/>
<path d="M1247 2042 c-14 -3 -17 -12 -15 -40 3 -33 6 -36 36 -37 31 -1 32 0
32 40 0 42 -6 46 -53 37z"/>
<path d="M788 1878 c-15 -5 -29 -19 -31 -31 -4 -22 -4 -22 -6 1 -1 19 -5 21
-28 16 -35 -9 -34 -7 -39 -43 -5 -28 -3 -31 20 -31 13 0 31 6 38 13 7 8 19 12
26 9 7 -2 24 -1 37 2 20 5 25 13 25 36 0 35 -7 40 -42 28z"/>
<path d="M640 1843 c-22 -8 -28 -21 -23 -47 4 -18 10 -22 29 -18 20 4 24 10
24 38 0 34 -3 37 -30 27z"/>
<path d="M790 1791 c-20 -6 -25 -14 -28 -44 -2 -36 -1 -38 25 -33 16 2 31 5
36 5 4 1 7 16 7 35 0 40 -6 45 -40 37z"/>
<path d="M704 1770 c-14 -6 -21 -17 -21 -34 0 -32 10 -40 43 -32 20 5 24 13
24 41 0 36 -8 41 -46 25z"/>
<path d="M1755 1606 l-200 -101 -3 -97 c-1 -54 -1 -98 2 -98 3 0 93 23 200 50
107 28 197 50 199 50 2 0 3 56 3 125 -1 69 3 125 7 125 5 0 47 -25 93 -55 72
-47 84 -52 84 -35 0 17 -83 80 -175 132 -5 3 -100 -40 -210 -96z"/>
<path d="M767 1683 c-2 -5 -4 -22 -5 -38 -2 -30 -1 -31 33 -27 32 4 35 7 35
38 0 31 -3 34 -29 34 -17 0 -32 -3 -34 -7z"/>
<path d="M686 1670 c-6 -11 -1 -60 7 -60 4 0 18 0 32 0 22 0 25 4 25 35 0 33
-2 35 -31 33 -17 -1 -32 -5 -33 -8z"/>
<path d="M762 1564 c0 -32 2 -34 35 -34 33 0 34 1 31 33 -3 28 -7 32 -34 33
-30 1 -32 -1 -32 -32z"/>
<path d="M1998 1575 c3 -16 11 -25 23 -25 10 0 21 -5 24 -11 4 -6 13 -8 20 -5
8 3 15 0 17 -6 3 -7 10 -8 17 -4 9 6 9 11 0 22 -6 7 -15 11 -20 8 -5 -3 -9 0
-9 7 0 6 -8 9 -20 6 -12 -3 -20 0 -20 8 0 7 -7 16 -16 19 -22 8 -22 9 -16 -19z"/>
<path d="M1997 1526 c-6 -15 6 -38 19 -38 4 0 11 9 15 19 7 17 8 17 8 1 1 -11
9 -18 21 -18 13 0 18 5 14 15 -4 8 -7 15 -8 15 0 0 -15 4 -33 9 -23 7 -33 6
-36 -3z"/>
<path d="M1997 1460 c3 -11 12 -20 19 -20 8 0 14 9 14 20 0 13 -7 20 -19 20
-14 0 -18 -5 -14 -20z"/>
<path d="M1910 1365 c-48 -14 -265 -72 -414 -110 -88 -22 -89 -23 -55 -33 19
-6 51 -14 72 -18 21 -3 36 -8 34 -10 -2 -3 -73 7 -158 21 -84 14 -161 25 -170
25 -9 0 -27 -16 -38 -36 -21 -35 -23 -36 -69 -30 -120 17 -112 13 -112 67 0
27 -3 48 -7 47 -5 -1 -34 6 -66 16 -80 23 -97 17 -97 -41 l0 -45 -47 6 c-27 4
-73 9 -104 12 l-56 6 -43 -78 c-24 -44 -57 -104 -75 -134 -18 -30 -45 -77 -60
-105 -15 -27 -43 -78 -62 -113 -20 -35 -33 -65 -31 -68 3 -2 31 44 63 103 32
60 68 124 80 143 21 34 84 148 112 203 8 15 18 27 23 27 4 0 65 -102 135 -227
70 -126 132 -234 139 -241 11 -11 48 -21 204 -57 22 -5 22 -5 22 129 l0 135
-44 3 -45 3 84 133 83 132 73 -130 c63 -111 78 -130 99 -131 32 -1 61 -6 67
-13 3 -2 -34 -64 -81 -137 -47 -72 -86 -135 -86 -138 0 -12 251 -94 260 -85 4
5 92 153 195 329 265 452 249 427 261 401 13 -25 54 -99 100 -179 19 -32 34
-60 34 -61 0 -2 36 -65 80 -141 44 -76 80 -141 80 -145 0 -4 9 -15 20 -25 26
-24 27 -2 2 40 -10 17 -40 71 -67 120 -27 50 -61 112 -77 138 -15 26 -28 49
-28 51 0 1 -31 58 -69 127 -77 137 -79 139 -161 114z"/>
<path d="M1987 1244 c-5 -8 171 -325 194 -349 5 -5 9 -35 9 -67 0 -48 3 -58
18 -59 9 0 27 -2 40 -3 13 -2 25 0 27 4 4 6 -233 417 -267 464 -8 11 -17 15
-21 10z"/>
<path d="M1189 1149 c-8 -13 -18 -31 -22 -39 -4 -8 -22 -39 -42 -67 -23 -35
-30 -53 -21 -53 18 0 108 145 104 167 -3 14 -6 13 -19 -8z"/>
<path d="M540 1018 c-41 -72 -94 -164 -117 -205 l-42 -73 40 0 39 0 0 45 c0
28 9 60 24 87 13 24 51 93 85 154 33 61 61 114 61 117 0 24 -24 -9 -90 -125z"/>
<path d="M1930 983 c-14 -9 -26 -17 -26 -17 -1 -1 -5 -11 -8 -23 -7 -21 -4
-23 37 -23 l45 0 -2 37 c-1 43 -12 49 -46 26z"/>
<path d="M1999 995 c-1 -3 -1 -14 -1 -25 0 -46 2 -50 32 -50 32 0 36 9 20 40
-10 19 -49 46 -51 35z"/>
<path d="M1190 951 c-13 -26 -13 -31 5 -31 9 0 15 9 15 25 0 30 -6 32 -20 6z"/>
<path d="M1220 945 c0 -18 5 -25 20 -25 11 0 20 7 20 15 0 8 -9 19 -20 25 -18
9 -20 8 -20 -15z"/>
<path d="M586 914 c-25 -24 -21 -56 6 -52 17 2 23 11 25 36 3 35 -7 40 -31 16z"/>
<path d="M630 895 c0 -33 2 -35 35 -35 33 0 34 1 24 27 -20 54 -59 59 -59 8z"/>
<path d="M1186 903 c-12 -12 -6 -43 9 -43 8 0 15 9 15 19 0 21 -13 34 -24 24z"/>
<path d="M1225 902 c-3 -3 -5 -16 -5 -28 0 -18 4 -22 18 -17 21 8 31 23 26 38
-5 12 -30 16 -39 7z"/>
<path d="M1890 859 l0 -39 44 0 45 0 -3 38 c-2 36 -3 37 -44 38 l-42 1 0 -38z"/>
<path d="M1996 890 c-1 -3 -2 -18 -2 -35 1 -26 5 -30 34 -33 31 -3 32 -2 32
37 0 39 -1 40 -31 38 -17 -1 -32 -4 -33 -7z"/>
<path d="M569 833 c-5 -44 -5 -63 3 -64 39 -6 43 -3 43 31 0 29 -4 36 -22 38
-13 2 -23 0 -24 -5z"/>
<path d="M643 834 c-7 -3 -13 -19 -13 -35 0 -16 6 -29 13 -30 6 0 20 -2 29 -4
19 -3 26 9 24 45 -1 25 -25 35 -53 24z"/>
<path d="M2408 677 c-37 -58 -111 -132 -163 -162 -55 -33 -147 -64 -210 -72
-141 -17 -227 -1 -659 127 -337 99 -451 121 -633 120 -265 0 -381 -41 -522
-182 -96 -96 -106 -115 -36 -73 30 18 94 45 142 61 74 23 106 28 198 28 201 1
376 -32 685 -128 303 -93 485 -128 675 -128 280 -1 450 118 535 371 27 80 23
93 -12 38z"/>
<path d="M2243 601 c-76 -47 -221 -71 -405 -66 -81 2 -153 6 -160 10 -9 6 -10
5 -3 -3 21 -23 140 -45 245 -45 173 -1 271 25 334 88 40 40 36 44 -11 16z"/>
<path d="M655 433 c-99 -7 -202 -25 -262 -45 -69 -24 -64 -39 11 -28 43 6 79
5 206 -4 151 -12 260 -34 525 -106 352 -96 369 -100 475 -116 295 -44 500 6
628 151 51 58 47 73 -6 23 -91 -86 -201 -119 -376 -114 -67 2 -132 6 -146 10
-14 4 -36 9 -50 12 -43 7 -107 24 -365 96 -299 84 -394 105 -500 113 -44 4
-84 7 -90 8 -5 1 -28 1 -50 0z"/>
</g>
</svg>
